<svg xmlns="http://www.w3.org/2000/svg" xmlns:xlink="http://www.w3.org/1999/xlink" width="231.335" height="59.648" viewBox="0 0 231.335 59.648">
  <defs>
    <clipPath id="clip-path">
      <rect id="사각형_561" data-name="사각형 561" width="60.78" height="59.648" fill="#fff"/>
    </clipPath>
  </defs>
  <g id="그룹_3515" data-name="그룹 3515" transform="translate(-10.784 2.837)">
    <g id="그룹_3504" data-name="그룹 3504" transform="translate(10.784 -2.837)">
      <g id="그룹_3503" data-name="그룹 3503" transform="translate(0 0)" clip-path="url(#clip-path)">
        <path id="패스_1683" data-name="패스 1683" d="M29.417,58.836A29.418,29.418,0,1,0,0,29.419,29.434,29.434,0,0,0,29.417,58.836M48.21,19.285s-2.067,15.053-4.527,18.2a6.862,6.862,0,0,1-2.952,2.361,22.688,22.688,0,0,0,.492-2.756,12.5,12.5,0,0,0-.983-5.705,21.74,21.74,0,0,0,2.853-5.214,31.5,31.5,0,0,0-3.541,3.836,18.958,18.958,0,0,0-1.573-2.262,12.024,12.024,0,0,0-2.264-1.869,112.964,112.964,0,0,1,12.5-6.592M36.5,28.926A11.149,11.149,0,1,1,19.873,43.783c-4.033-4.526-9.247-27.155-9.247-27.155S32.468,24.4,36.5,28.926" transform="translate(0 -0.002)" fill="#fff"/>
      </g>
      <g id="그룹_3513" data-name="그룹 3513" transform="translate(20.148 26.843)">
        <g id="그룹_3513-2" data-name="그룹 3513" transform="translate(0 0)">
          <path id="패스_1684" data-name="패스 1684" d="M40.373,44.942c-.886-3.837-9.151-12.495-13.086-14.659A54.925,54.925,0,0,0,40.373,44.942" transform="translate(-27.287 -30.283)" fill="#fff"/>
        </g>
      </g>
    </g>
    <g id="그룹_3510" data-name="그룹 3510" transform="translate(81.563 9.526)">
      <g id="그룹_3512" data-name="그룹 3512" transform="translate(0 0)">
        <path id="패스_1686" data-name="패스 1686" d="M94.472,11.12v7.536h12.043v4a2.1,2.1,0,0,1-.563,1.632,2.463,2.463,0,0,1-1.69.505h-9.79v7.846h14.1v3.381a2.667,2.667,0,0,1-.7,2,2.784,2.784,0,0,1-2.02.68H89.305a2.782,2.782,0,0,1-2.02-.68,2.667,2.667,0,0,1-.7-2V5.06h21.988V8.984a2.093,2.093,0,0,1-.563,1.632,2.463,2.463,0,0,1-1.69.505Z" transform="translate(-86.586 -3.972)" fill="#fff"/>
        <path id="패스_1687" data-name="패스 1687" d="M127.994,33.721a7.659,7.659,0,0,1-2.059,2.6A8.227,8.227,0,0,1,123.08,37.8a11.3,11.3,0,0,1-3.185.466q-5.478,0-8.236-3.456-2.68-3.42-2.68-9.207,0-5.711,2.68-9.169,2.718-3.417,8.2-3.418a10.67,10.67,0,0,1,3.321.524,8.487,8.487,0,0,1,2.875,1.592,7.874,7.874,0,0,1,2.02,2.662,8.6,8.6,0,0,1,.758,3.729h-7.381a3.091,3.091,0,0,0-.6-2.195,1.862,1.862,0,0,0-1.34-.6q-1.128,0-1.923,1.672a12.744,12.744,0,0,0-.8,5.206,13.827,13.827,0,0,0,.758,5.418,2.339,2.339,0,0,0,2.117,1.612,1.681,1.681,0,0,0,1.224-.583,3.49,3.49,0,0,0,.641-2.214h7.264a8.631,8.631,0,0,1-.8,3.885" transform="translate(-84.815 -3.343)" fill="#fff"/>
        <path id="패스_1688" data-name="패스 1688" d="M149.262,25.6q0,6.526-2.467,9.6t-8.1,3.068q-5.361,0-7.964-3.087t-2.6-9.576q0-6.488,2.816-9.537a11.4,11.4,0,0,1,15.52,0q2.8,3.05,2.8,9.537m-7.808,0a12.415,12.415,0,0,0-.816-5.283q-.816-1.593-1.942-1.593-1.2,0-1.981,1.593a12.973,12.973,0,0,0-.777,5.283,14.141,14.141,0,0,0,.738,5.128q.738,1.826,2.02,1.825,1.36,0,2.059-1.825a14.861,14.861,0,0,0,.7-5.128" transform="translate(-83.3 -3.343)" fill="#fff"/>
        <path id="패스_1689" data-name="패스 1689" d="M161.141,24.989a9.637,9.637,0,0,0,.213-1.165,7.364,7.364,0,0,1,.214-1.127L166.344,5.06h8.121l-9.519,31.777a2.765,2.765,0,0,1-.952,1.5,2.683,2.683,0,0,1-1.689.524h-4.312l-10.1-33.8h8.08l4.818,17.676A7.667,7.667,0,0,1,161,23.843c.066.479.11.861.137,1.146" transform="translate(-81.737 -3.972)" fill="#fff"/>
        <path id="패스_1690" data-name="패스 1690" d="M181.453,9.141a1.9,1.9,0,0,1-.583,1.516,2.678,2.678,0,0,1-1.787.5h-5.594V4.052h7.964Zm-7.886,29.641V14.269h7.847V36.062a2.411,2.411,0,0,1-.932,1.962,3.341,3.341,0,0,1-2.175.758Z" transform="translate(-79.712 -4.052)" fill="#fff"/>
        <path id="패스_1691" data-name="패스 1691" d="M191.192,27.584a7.375,7.375,0,0,0,.874,3.826,2.8,2.8,0,0,0,2.545,1.456,3.829,3.829,0,0,0,.932-.115,2.223,2.223,0,0,0,.855-.427,2.682,2.682,0,0,0,.66-.8,3.248,3.248,0,0,0,.35-1.263h7.769a7.44,7.44,0,0,1-1.068,3.341,8.929,8.929,0,0,1-2.35,2.525,10.585,10.585,0,0,1-3.283,1.592,13.464,13.464,0,0,1-3.826.544,11.748,11.748,0,0,1-4.895-.951,9.627,9.627,0,0,1-3.5-2.642,11.348,11.348,0,0,1-2.1-4,17.438,17.438,0,0,1-.7-5.07,16.892,16.892,0,0,1,.758-5.244,11.263,11.263,0,0,1,2.175-3.962,9.52,9.52,0,0,1,3.419-2.506,11.1,11.1,0,0,1,4.487-.874,11.219,11.219,0,0,1,4.312.816,9.862,9.862,0,0,1,3.438,2.35,10.878,10.878,0,0,1,2.273,3.691,13.582,13.582,0,0,1,.816,4.837v2.875Zm6.216-4.429a7.465,7.465,0,0,0-.1-1.573,5.9,5.9,0,0,0-.486-1.573,3.356,3.356,0,0,0-.972-1.224A2.442,2.442,0,0,0,194.3,18.3a2.364,2.364,0,0,0-1.437.427,3.26,3.26,0,0,0-.952,1.127,5.782,5.782,0,0,0-.544,1.573,8.8,8.8,0,0,0-.175,1.729Z" transform="translate(-78.923 -3.343)" fill="#fff"/>
        <path id="패스_1692" data-name="패스 1692" d="M214.237,25.547a4.283,4.283,0,0,0,.136-.816,6.676,6.676,0,0,1,.1-.738l3.108-10.761h6.214l3.147,10.8a3.189,3.189,0,0,1,.136.719q.06.524.1.758a3.5,3.5,0,0,0,.118-.758,6.714,6.714,0,0,1,.078-.719l2.369-10.8h8.159l-6.332,23a2.356,2.356,0,0,1-.913,1.34,2.647,2.647,0,0,1-1.573.486H224.26l-3.3-11.3c-.027-.128-.065-.388-.117-.777a5.312,5.312,0,0,0-.155-.816,3.431,3.431,0,0,0-.136.777,4.469,4.469,0,0,1-.136.816l-2.8,9.634a2.009,2.009,0,0,1-.932,1.263,3.1,3.1,0,0,1-1.593.408h-4.741l-6.876-24.824h8.159l2.407,10.722a3.086,3.086,0,0,1,.118.777c.025.388.052.66.078.816" transform="translate(-77.34 -3.326)" fill="#fff"/>
      </g>
    </g>
  </g>
</svg>
